<?xml version="1.0" encoding="utf-8"?>
<!-- Generator: Adobe Illustrator 27.1.1, SVG Export Plug-In . SVG Version: 6.00 Build 0)  -->
<svg version="1.1" id="Layer_1" xmlns="http://www.w3.org/2000/svg" xmlns:xlink="http://www.w3.org/1999/xlink" x="0px" y="0px"
	 viewBox="0 0 720 498.98" style="enable-background:new 0 0 720 498.98;" xml:space="preserve">
<style type="text/css">
	.st0{fill:#FFFFFF;}
	.st1{fill:none;}
	.st2{fill:#0AA06A;}
</style>
<rect x="-17.54" y="-16.47" width="776.08" height="536.59"/>
<g>
	<g>
		<path class="st0" d="M202.2,280.93v-46.84h16.16c10.01,0,16.56,5.15,16.56,15.19c0,7.56-3.8,12.18-9.95,13.98l11.91,17.66
			l-10.41-0.07l-11.32-16.73h-3.34v16.79H202.2z M211.81,254.43h6.48c4.84,0,7-1.74,7-5.42c0-3.01-2.16-5.22-7-5.22h-6.48V254.43z"
			/>
		<path class="st0" d="M240.08,280.93l17.74-46.84h9.55l17.74,46.84h-9.82l-3.73-9.9h-17.93l-3.73,9.9H240.08z M257.36,261.32h10.47
			l-5.24-13.92L257.36,261.32z"/>
		<path class="st0" d="M367.96,234.09v9.7h-23.89v8.76h20.62v9.77h-20.62v8.9h23.89v9.7h-33.51v-46.84H367.96z"/>
		<path class="st0" d="M406.83,234.09v9.7h-13.22v37.13h-9.56v-37.13h-13.22v-9.7H406.83z"/>
		<path class="st0" d="M421.68,234.09l17.28,36.4l17.28-36.4h10.14v46.84h-9.62v-27.03l-12.83,27.03h-9.95l-12.83-27.03v27.03h-9.62
			v-46.84H421.68z"/>
		<path class="st0" d="M495.04,233.42c12.83,0,22.77,10.91,22.77,24.42c0,13.11-9.95,23.75-22.77,23.75s-22.58-10.64-22.58-23.75
			C472.46,244.33,482.21,233.42,495.04,233.42z M482.01,257.84c0,7.83,5.5,14.05,13.02,14.05s13.22-6.22,13.22-14.05
			c0-8.23-5.69-14.72-13.22-14.72S482.01,249.61,482.01,257.84z"/>
		<polygon class="st0" points="309.91,254.19 321.74,241.77 309.84,254.09 		"/>
		<polygon class="st0" points="289.82,275.28 289.82,280.86 299.44,280.86 299.44,265.4 303.95,260.45 319.14,280.93 329.74,280.93 
			309.91,254.19 		"/>
		<polygon class="st0" points="309.84,254.09 321.74,241.77 321.75,241.77 321.74,241.77 356.63,205.65 345.77,205.58 
			299.44,253.69 299.44,240.89 289.82,240.89 289.82,275.28 309.91,254.19 		"/>
	</g>
	<g>
		<path class="st0" d="M349.13,219.17l-3.86,4h177.95v66.23H196.78v-66.23h126.5l3.85-4H192.78v74.23h334.44v-74.23H349.13z"/>
	</g>
</g>
</svg>
